<?xml version="1.0" encoding="UTF-8" standalone="no"?>
<!DOCTYPE svg PUBLIC "-//W3C//DTD SVG 1.1//EN" "http://www.w3.org/Graphics/SVG/1.1/DTD/svg11.dtd">
<svg width="100%" height="100%" viewBox="0 0 213 214" version="1.1" xmlns="http://www.w3.org/2000/svg" xmlns:xlink="http://www.w3.org/1999/xlink" xml:space="preserve" xmlns:serif="http://www.serif.com/" style="fill-rule:evenodd;clip-rule:evenodd;stroke-linejoin:round;stroke-miterlimit:2;">
    <g id="Artboard1" transform="matrix(0.898527,0,0,0.948175,-112.316,-137.485)">
        <rect x="125" y="145" width="237" height="225" style="fill:none;"/>
        <g transform="matrix(3.68659,-3.49355,3.68659,3.49355,-202.676,610.333)">
            <rect x="95" y="-6" width="32" height="32" style="fill:rgb(43,54,69);"/>
        </g>
        <g transform="matrix(1.11293,0,0,1.05466,119.309,144.636)">
            <path d="M115.217,56.136C114.21,69.91 116.87,82.935 123.194,95.212C123.226,95.243 123.257,95.274 123.288,95.306C135.565,101.63 148.59,104.29 162.364,103.283C162.545,105.758 162.545,108.242 162.364,110.717C148.59,109.71 135.565,112.37 123.288,118.694C123.257,118.726 123.226,118.757 123.194,118.788C116.87,131.065 114.21,144.09 115.217,157.864C112.742,158.045 110.258,158.045 107.783,157.864C108.79,144.09 106.13,131.065 99.806,118.788C99.774,118.757 99.743,118.726 99.712,118.694C87.435,112.37 74.41,109.71 60.636,110.717C60.455,108.242 60.455,105.758 60.636,103.283C74.41,104.29 87.435,101.63 99.712,95.306C99.743,95.274 99.774,95.243 99.806,95.212C106.13,82.935 108.79,69.91 107.783,56.136C110.258,55.955 112.742,55.955 115.217,56.136Z" style="fill:rgb(235,235,235);"/>
            <clipPath id="_clip1">
                <path d="M115.217,56.136C114.21,69.91 116.87,82.935 123.194,95.212C123.226,95.243 123.257,95.274 123.288,95.306C135.565,101.63 148.59,104.29 162.364,103.283C162.545,105.758 162.545,108.242 162.364,110.717C148.59,109.71 135.565,112.37 123.288,118.694C123.257,118.726 123.226,118.757 123.194,118.788C116.87,131.065 114.21,144.09 115.217,157.864C112.742,158.045 110.258,158.045 107.783,157.864C108.79,144.09 106.13,131.065 99.806,118.788C99.774,118.757 99.743,118.726 99.712,118.694C87.435,112.37 74.41,109.71 60.636,110.717C60.455,108.242 60.455,105.758 60.636,103.283C74.41,104.29 87.435,101.63 99.712,95.306C99.743,95.274 99.774,95.243 99.806,95.212C106.13,82.935 108.79,69.91 107.783,56.136C110.258,55.955 112.742,55.955 115.217,56.136Z"/>
            </clipPath>
            <g clip-path="url(#_clip1)">
                <path d="M170.197,50L170.197,164C170.197,165.214 169.214,166.197 168,166.197L55,166.197C53.786,166.197 52.803,165.214 52.803,164L52.803,50C52.803,48.786 53.786,47.803 55,47.803L168,47.803C169.214,47.803 170.197,48.786 170.197,50ZM138.202,71.023C122.364,59.255 100.636,59.256 84.798,71.023L88.057,74.282C88.499,74.724 88.732,75.333 88.698,75.956C88.664,76.58 88.366,77.16 87.879,77.55C85.729,79.275 83.775,81.229 82.05,83.379C81.66,83.866 81.08,84.164 80.456,84.198C79.833,84.232 79.224,83.999 78.782,83.557C78.782,83.557 75.523,80.298 75.523,80.298C63.756,96.136 63.756,117.864 75.523,133.702L78.782,130.443C79.224,130.001 79.833,129.768 80.456,129.802C81.08,129.836 81.66,130.134 82.05,130.621C83.775,132.771 85.729,134.725 87.879,136.45C88.366,136.84 88.664,137.42 88.698,138.044C88.732,138.667 88.499,139.276 88.057,139.718C88.057,139.718 84.798,142.977 84.798,142.977C100.636,154.744 122.364,154.744 138.202,142.977L134.943,139.718C134.501,139.276 134.268,138.667 134.302,138.044C134.336,137.42 134.634,136.84 135.121,136.45C137.271,134.725 139.225,132.771 140.95,130.621C141.34,130.134 141.92,129.836 142.544,129.802C143.167,129.768 143.776,130.001 144.218,130.443C144.218,130.443 147.477,133.702 147.477,133.702C159.244,117.864 159.244,96.136 147.477,80.298L144.218,83.557C143.776,83.999 143.167,84.232 142.544,84.198C141.92,84.164 141.34,83.866 140.95,83.379C139.225,81.229 137.271,79.275 135.121,77.55C134.634,77.16 134.336,76.58 134.302,75.956C134.268,75.333 134.501,74.724 134.943,74.282L138.202,71.023Z" style="fill-opacity:0.15;"/>
            </g>
            <path d="M168,50L168,164L55,164L55,50L168,50ZM141.507,70.826C124.106,56.391 98.894,56.391 81.493,70.826L86.504,75.836C84.229,77.661 82.161,79.729 80.336,82.004L75.326,76.993C60.891,94.394 60.891,119.606 75.326,137.007L80.336,131.996C82.161,134.271 84.229,136.339 86.504,138.164L81.493,143.174C98.894,157.609 124.106,157.609 141.507,143.174L136.496,138.164C138.771,136.339 140.839,134.271 142.664,131.996L147.674,137.007C162.109,119.606 162.109,94.394 147.674,76.993L142.664,82.004C140.839,79.729 138.771,77.661 136.496,75.836L141.507,70.826Z" style="fill:url(#_Linear2);"/>
            <g transform="matrix(0.3125,-0.3125,0.3125,0.3125,73.1875,211.562)">
                <path d="M127,-6L127,26L95,26L95,-6L127,-6ZM117,4L105,4L105,16L117,16L117,4Z" style="fill:rgb(235,235,235);"/>
            </g>
            <g transform="matrix(0.53125,-0.53125,0.53125,0.53125,46.7188,78.6562)">
                <path d="M127,-6L127,26L95,26L95,-6L127,-6ZM117,4L105,4L105,16L117,16L117,4Z" style="fill:url(#_Linear3);"/>
            </g>
            <g transform="matrix(0.53125,-0.53125,0.53125,0.53125,125.719,160.656)">
                <path d="M127,-6L127,26L95,26L95,-6L127,-6ZM117,4L105,4L105,16L117,16L117,4Z" style="fill:url(#_Linear4);"/>
            </g>
            <g transform="matrix(0.53125,-0.53125,0.53125,0.53125,-31.2812,160.656)">
                <path d="M127,-6L127,26L95,26L95,-6L127,-6ZM117,4L105,4L105,16L117,16L117,4Z" style="fill:url(#_Linear5);"/>
            </g>
        </g>
    </g>
    <defs>
        <linearGradient id="_Linear2" x1="0" y1="0" x2="1" y2="0" gradientUnits="userSpaceOnUse" gradientTransform="matrix(-71,-113,113,-71,166.5,161)"><stop offset="0" style="stop-color:rgb(244,87,8);stop-opacity:1"/><stop offset="1" style="stop-color:rgb(250,121,12);stop-opacity:1"/></linearGradient>
        <linearGradient id="_Linear3" x1="0" y1="0" x2="1" y2="0" gradientUnits="userSpaceOnUse" gradientTransform="matrix(39.5294,-173.176,173.176,39.5294,35.2353,190.235)"><stop offset="0" style="stop-color:rgb(244,87,8);stop-opacity:1"/><stop offset="1" style="stop-color:rgb(250,121,12);stop-opacity:1"/></linearGradient>
        <linearGradient id="_Linear4" x1="0" y1="0" x2="1" y2="0" gradientUnits="userSpaceOnUse" gradientTransform="matrix(39.5294,-173.176,173.176,39.5294,38.0588,38.7059)"><stop offset="0" style="stop-color:rgb(244,87,8);stop-opacity:1"/><stop offset="1" style="stop-color:rgb(250,121,12);stop-opacity:1"/></linearGradient>
        <linearGradient id="_Linear5" x1="0" y1="0" x2="1" y2="0" gradientUnits="userSpaceOnUse" gradientTransform="matrix(39.5294,-173.176,173.176,39.5294,185.824,186.471)"><stop offset="0" style="stop-color:rgb(244,87,8);stop-opacity:1"/><stop offset="1" style="stop-color:rgb(250,121,12);stop-opacity:1"/></linearGradient>
    </defs>
</svg>
